<svg width="944" height="546" viewBox="0 0 735 546" fill="none" xmlns="http://www.w3.org/2000/svg">
<path d="M472.947 149.28C425.754 105.006 370.405 93.6458 355.839 91.3156C365.744 64.8093 380.892 25.3412 384.679 19.5156C385.844 19.37 388.32 19.0787 392.107 19.0787C402.886 19.0787 425.754 21.2633 459.109 36.2641C507.176 57.8186 519.994 82.1403 522.47 88.1115L472.947 149.28Z" fill="white"/>
<path d="M391.962 21.9915C402.449 21.9915 425.026 24.1761 457.653 38.8856C501.059 58.4012 515.042 80.247 518.829 87.6746L472.51 145.056C444.544 119.715 414.539 105.588 393.71 98.3062C378.998 93.0632 367.054 90.2961 359.772 88.9853C370.696 59.7119 382.494 29.7103 386.427 22.1371C387.738 22.1371 389.631 21.9915 391.962 21.9915ZM391.962 16.1659C386.136 16.1659 383.077 16.7485 383.077 16.7485C379.727 17.9136 351.761 93.6458 351.761 93.6458C351.761 93.6458 418.18 100.345 473.092 153.503L525.529 88.5484C525.529 88.5484 516.789 58.9837 459.983 33.4969C426.919 18.6418 403.76 16.1659 391.962 16.1659Z" fill="#A0C6F4"/>
<path d="M361.52 99.617C361.52 99.617 426.774 106.171 466.975 143.163" stroke="#2A1E17" stroke-miterlimit="10" stroke-linecap="round" stroke-linejoin="round"/>
<path d="M417.889 96.4129L442.213 49.0803L467.266 98.4519L417.889 96.4129Z" fill="#A0C6F4"/>
<path d="M422.695 95.6847L447.02 48.3521L471.927 97.7237L422.695 95.6847Z" stroke="#2A1E17" stroke-miterlimit="10" stroke-linecap="round" stroke-linejoin="round"/>
<path d="M399.827 13.2531C399.827 13.2531 472.947 19.8069 518.537 73.8389" stroke="#2A1E17" stroke-miterlimit="10" stroke-linecap="round" stroke-linejoin="round"/>
<path d="M437.115 222.973C433.037 220.06 430.415 218.021 430.415 218.021C431.58 216.565 449.205 197.778 459.401 182.631C459.401 182.777 438.863 224.284 437.115 222.973Z" fill="#2A1E17"/>
<path d="M187.606 86.3638C189.499 89.5679 190.373 88.2571 196.054 87.8202C201.734 87.3833 209.745 91.4612 212.659 98.4519C215.572 105.443 214.552 106.462 213.096 107.336C211.639 108.21 200.715 109.52 200.278 111.705" stroke="#2A1E17" stroke-miterlimit="10" stroke-linecap="round" stroke-linejoin="round"/>
<path d="M334.427 440.849L329.329 432.256L311.414 462.258L316.075 465.899L334.427 440.849Z" fill="#F9865F"/>
<path d="M214.843 366.427C214.843 366.427 205.521 351.281 209.454 343.853L239.168 347.057L214.843 366.427Z" fill="#F9865F"/>
<path d="M214.843 366.427L216.591 370.505L211.056 391.914C210.328 394.681 211.202 397.448 213.387 399.342L240.625 359.145C243.246 355.359 242.664 350.116 239.314 347.057L233.196 341.377L214.843 366.427Z" fill="black"/>
<path d="M200.278 111.851C208.871 111.705 219.65 111.122 217.465 104.569C215.28 98.0149 207.269 81.849 188.771 86.8007C188.771 86.8007 182.216 92.1894 190.373 101.947C198.53 111.559 200.278 111.851 200.278 111.851Z" fill="#2A1E33"/>
<path d="M243.392 347.349C243.392 347.349 228.826 304.385 241.207 285.452C251.403 269.869 284.613 295.21 289.128 298.56L312.87 255.596C312.87 255.596 307.335 247.877 293.935 240.45C280.534 233.022 224.894 210.448 198.676 251.664C189.062 266.956 188.917 332.348 207.415 357.398L243.392 347.349Z" fill="#7595EC"/>
<path d="M243.392 347.349C243.392 347.349 228.826 304.385 241.207 285.452C251.403 269.869 284.613 295.21 289.128 298.56" stroke="#2A1E17" stroke-miterlimit="10" stroke-linecap="round" stroke-linejoin="round"/>
<path d="M312.87 255.887C302.092 267.247 270.047 322.59 262.764 349.096C253.151 384.487 256.792 413.906 309.666 471.433L335.301 434.149C335.301 434.149 317.24 406.769 320.59 380.991C325.397 343.708 351.906 307.589 365.452 284.724L312.87 255.887Z" fill="#7595EC"/>
<path d="M316.949 260.694L359.48 294.045L372.298 274.675L316.949 260.694Z" fill="#2A1E17"/>
<path d="M561.506 225.449C568.206 226.905 573.159 229.381 576.654 233.022C580.15 236.663 578.548 238.556 577.237 239.722C575.926 240.887 571.119 239.576 566.75 235.789C562.38 232.003 561.506 225.449 561.506 225.449Z" fill="#FF8A66"/>
<path d="M430.561 218.021C431.726 216.565 449.35 197.778 459.546 182.631C459.546 182.631 490.426 217.148 493.63 218.313C494.941 218.75 502.369 218.604 511.837 218.458C527.714 218.313 548.834 218.167 553.495 220.497C560.923 224.138 565.439 226.031 567.187 231.274C569.08 236.517 569.808 239.867 565.293 240.158C560.049 240.595 556.699 233.896 556.699 233.896C556.699 233.896 552.475 236.517 541.551 240.595C541.551 240.595 502.078 255.887 475.714 248.46C468.431 246.567 430.561 218.021 430.561 218.021Z" fill="#F9865F"/>
<path d="M191.101 80.247C187.751 81.5578 185.712 83.0141 187.606 86.3638C189.499 89.5679 190.373 88.2571 196.054 87.8202C201.734 87.3833 209.745 91.4612 212.659 98.4519C215.572 105.443 214.552 106.462 213.096 107.336C211.639 108.21 200.715 109.52 200.278 111.705C199.841 113.89 204.647 120.298 214.698 119.861L217.028 119.424C217.028 119.424 238.148 139.959 241.207 143.017C244.266 146.076 266.697 161.222 279.078 164.281C288.4 166.611 307.481 163.552 318.842 161.368C324.377 160.348 328.164 159.329 328.164 159.329C328.164 159.329 319.57 143.891 317.823 120.152C317.823 120.152 297.285 123.502 283.739 126.415C283.739 126.415 251.986 108.647 236.401 100.782C236.401 100.782 222.854 84.1793 216.591 81.9947C210.328 80.247 195.762 78.4993 191.101 80.247Z" fill="#F9865F"/>
<path d="M318.842 161.513C324.377 160.494 328.164 159.475 328.164 159.475C328.164 159.475 317.823 146.367 316.075 122.628C316.075 122.628 311.414 127.725 312.87 141.124C314.764 158.164 318.842 161.513 318.842 161.513Z" fill="#2A1E17"/>
<path d="M315.638 120.152C315.638 120.152 315.929 149.134 323.649 161.222L326.416 160.057C326.416 160.057 289.711 202.875 277.913 230.983C276.019 235.498 353.945 285.452 365.452 284.724C365.452 284.724 403.469 226.76 416.432 209.574L430.415 220.352C430.415 220.352 457.798 192.535 459.255 182.777C459.255 182.777 432.746 150.591 411.188 141.124C389.486 131.658 370.113 115.492 346.954 115.929C326.853 116.365 315.638 120.152 315.638 120.152Z" fill="#FFF7C9"/>
<path d="M430.561 220.352L416.578 209.429L418.763 203.457L430.561 220.352Z" fill="#2A1E17"/>
<path d="M451.827 105.588C449.35 113.161 442.359 135.153 434.493 137.92C426.628 140.687 418.471 137.192 418.471 137.192L410.023 141.415C409.149 144.182 402.449 146.658 393.855 146.95C387.592 147.241 383.659 139.085 385.553 133.114C386.427 130.347 389.631 117.094 389.631 117.094C389.631 117.094 396.477 92.0438 402.74 86.9464C409.004 81.849 414.83 76.606 431.58 83.4511C456.925 93.9371 451.827 105.588 451.827 105.588Z" fill="#F9865F"/>
<path d="M401.138 106.608C399.973 111.268 395.166 120.589 391.962 118.987C388.757 117.239 387.592 113.016 389.923 104.714C392.253 96.4129 394.001 77.7711 400.41 74.4214C406.819 71.0718 409.586 75.004 409.586 75.004C409.586 75.004 406.819 61.314 414.975 59.5663C414.975 59.5663 417.743 58.2555 416.723 67.5764C416.723 67.5764 419.928 58.9837 430.124 60.1488C440.32 61.3139 443.961 75.5866 443.961 75.5866C443.961 75.5866 444.689 71.6543 449.35 71.6543C454.011 71.6543 461.149 78.4993 459.401 86.2182C459.401 86.2182 471.345 82.4316 477.753 92.0437C484.162 101.51 483.288 111.996 467.994 116.22C451.972 120.589 452.118 101.802 449.642 99.4713C447.166 96.9955 444.544 94.2283 435.659 97.578C426.628 100.928 417.306 91.0243 417.306 91.0243C417.306 91.0243 415.849 102.967 414.247 104.132C412.791 105.297 409.732 106.753 410.46 101.073C411.188 95.5391 412.208 95.976 411.625 94.5196C411.043 93.0632 408.567 88.2571 403.177 92.4807C397.497 97.1411 401.138 106.608 401.138 106.608Z" fill="#2A1E33"/>
<path d="M403.76 108.792C400.264 105.734 397.788 100.491 400.847 95.2478C404.051 90.0048 409.149 89.2766 410.751 91.3156C412.354 93.3545 412.936 96.7042 411.48 100.636" stroke="#2A1E33" stroke-miterlimit="10" stroke-linecap="round" stroke-linejoin="round"/>
<path d="M316.075 465.899L317.823 469.977L312.288 491.385C311.559 494.153 312.433 496.92 314.618 498.813L341.856 458.617C344.478 454.83 343.895 449.587 340.545 446.529L334.427 440.849L316.075 465.899Z" fill="black"/>
<path d="M409.586 75.1496C409.586 75.1496 407.547 68.3046 401.284 66.5569" stroke="#2A1E33" stroke-miterlimit="10" stroke-linecap="round" stroke-linejoin="round"/>
<path d="M277.184 228.944L352.489 123.647" stroke="#2A1E17" stroke-miterlimit="10" stroke-linecap="round" stroke-linejoin="round"/>
<path d="M383.659 130.929C380.892 134.425 379.727 149.717 392.253 150.591C404.78 151.61 412.791 146.076 412.791 146.076" stroke="#2A1E17" stroke-miterlimit="10" stroke-linecap="round" stroke-linejoin="round"/>
<path d="M216.591 82.4316C216.591 82.4316 225.185 93.7914 226.496 97.8693" stroke="#2A1E17" stroke-miterlimit="10" stroke-linecap="round" stroke-linejoin="round"/>
<path d="M539.512 235.352C539.512 235.352 545.338 240.158 556.699 233.896C560.923 231.711 557.865 226.468 552.621 227.779C547.377 229.09 541.114 227.051 541.114 227.051" stroke="#2A1E17" stroke-miterlimit="10" stroke-linecap="round" stroke-linejoin="round"/>
<path d="M563.545 226.177C563.545 226.177 569.08 232.585 568.935 236.517" stroke="#2A1E17" stroke-miterlimit="10" stroke-linecap="round" stroke-linejoin="round"/>
<path d="M482.123 225.449C482.123 225.449 487.075 218.75 493.484 218.313" stroke="#2A1E17" stroke-miterlimit="10" stroke-linecap="round" stroke-linejoin="round"/>
<path d="M271.504 137.483C271.504 137.483 274.417 128.453 283.739 126.706" stroke="#2A1E17" stroke-miterlimit="10" stroke-linecap="round" stroke-linejoin="round"/>
<path d="M296.848 275.257L285.633 296.521C285.633 296.521 248.927 358.708 261.308 398.905" stroke="#2A1E17" stroke-miterlimit="10" stroke-linecap="round" stroke-linejoin="round"/>
<path d="M329.329 346.62L365.452 284.578C365.452 284.578 412.936 215.837 417.743 206.079L434.493 175.058" stroke="#2A1E17" stroke-miterlimit="10" stroke-linecap="round" stroke-linejoin="round"/>
<path d="M282.137 235.498C282.137 235.498 346.517 282.394 365.598 284.724" stroke="#2A1E17" stroke-miterlimit="10" stroke-linecap="round" stroke-linejoin="round"/>
<path d="M315.638 120.152C315.638 120.152 315.638 149.571 323.503 161.659" stroke="#2A1E17" stroke-miterlimit="10" stroke-linecap="round" stroke-linejoin="round"/>
<path d="M457.362 178.116C455.322 190.204 428.522 215.691 428.522 215.691" stroke="#2A1E17" stroke-miterlimit="10" stroke-linecap="round" stroke-linejoin="round"/>
<path d="M256.938 329.144C259.03 329.144 260.725 327.448 260.725 325.357C260.725 323.266 259.03 321.571 256.938 321.571C254.847 321.571 253.151 323.266 253.151 325.357C253.151 327.448 254.847 329.144 256.938 329.144Z" fill="#2A1E17"/>
<path d="M615.399 407.352L613.214 392.788L625.74 401.089L619.186 402.4L615.399 407.352Z" stroke="#2A1E17" stroke-miterlimit="10" stroke-linecap="round" stroke-linejoin="round"/>
<path d="M202.026 158.018C178.429 137.192 139.393 189.185 282.137 354.485C364.578 449.878 429.25 458.471 437.989 425.265C453.72 365.699 396.914 350.698 418.034 374.001C448.768 407.934 536.162 415.071 601.27 383.467C665.505 352.3 626.032 303.803 622.099 300.89" stroke="#2A1E17" stroke-miterlimit="10" stroke-linecap="round" stroke-linejoin="round"/>
<path d="M602.435 386.817C604.527 386.817 606.223 385.121 606.223 383.03C606.223 380.939 604.527 379.244 602.435 379.244C600.344 379.244 598.648 380.939 598.648 383.03C598.648 385.121 600.344 386.817 602.435 386.817Z" fill="#2A1E17"/>
<path d="M546.94 414.197L660.115 350.407" stroke="#2A1E17" stroke-miterlimit="10" stroke-linecap="round" stroke-linejoin="round"/>
<path d="M204.502 164.863C206.593 164.863 208.289 163.168 208.289 161.077C208.289 158.985 206.593 157.29 204.502 157.29C202.41 157.29 200.715 158.985 200.715 161.077C200.715 163.168 202.41 164.863 204.502 164.863Z" fill="#2A1E17"/>
<path d="M301.8 90.4417C306.305 90.4417 309.957 86.7903 309.957 82.2859C309.957 77.7816 306.305 74.1302 301.8 74.1302C297.295 74.1302 293.644 77.7816 293.644 82.2859C293.644 86.7903 297.295 90.4417 301.8 90.4417Z" fill="#FF6D66"/>
<path d="M153.085 19.6612C151.046 19.6612 149.444 21.2633 149.444 23.3022C149.444 25.3412 151.046 26.9432 153.085 26.9432C155.124 26.9432 156.726 25.3412 156.726 23.3022C156.726 21.2633 155.124 19.6612 153.085 19.6612Z" fill="#A0C6F4"/>
<path d="M635.791 467.064C637.802 467.064 639.432 465.434 639.432 463.423C639.432 461.412 637.802 459.782 635.791 459.782C633.78 459.782 632.149 461.412 632.149 463.423C632.149 465.434 633.78 467.064 635.791 467.064Z" fill="#FAD8B0"/>
<path d="M571.411 300.89L532.666 282.685C529.607 281.229 529.607 276.714 532.812 275.403L604.912 243.654C605.931 243.217 607.096 243.217 608.116 243.654L657.639 264.917L571.411 300.89Z" fill="#2A1E33"/>
<path d="M569.08 241.032C569.226 257.053 571.411 300.744 571.411 300.744L657.494 264.771L655.6 203.894C655.454 200.108 651.667 197.778 648.172 199.234L574.032 233.022C570.974 234.624 569.08 237.683 569.08 241.032Z" fill="#C6CBCB"/>
<path d="M571.411 300.89L657.494 264.917L655.6 204.04C655.6 204.04 655.017 197.341 648.172 199.38" stroke="#2A1E17" stroke-miterlimit="10" stroke-linecap="round" stroke-linejoin="round"/>
<path d="M613.214 257.053L618.895 243.363" stroke="#2A1E17" stroke-miterlimit="10" stroke-linecap="round" stroke-linejoin="round"/>
<path d="M618.895 257.053L624.721 243.363" stroke="#2A1E17" stroke-miterlimit="10" stroke-linecap="round" stroke-linejoin="round"/>
<path d="M168.67 407.061C170.681 407.061 172.312 405.43 172.312 403.42C172.312 401.409 170.681 399.779 168.67 399.779C166.659 399.779 165.029 401.409 165.029 403.42C165.029 405.43 166.659 407.061 168.67 407.061Z" fill="#FF6D66"/>
<path d="M472.364 426.139C475.099 426.139 477.316 423.922 477.316 421.188C477.316 418.453 475.099 416.236 472.364 416.236C469.629 416.236 467.412 418.453 467.412 421.188C467.412 423.922 469.629 426.139 472.364 426.139Z" fill="#FF6D66"/>
<path d="M205.958 456.723C211.785 459.491 228.826 466.627 251.403 466.481C252.568 466.481 253.588 467.501 253.442 468.811L250.238 493.716C250.092 494.59 249.51 495.318 248.636 495.463C242.227 496.628 216.591 500.124 197.365 483.958C196.782 483.521 196.491 482.647 196.782 481.919L203.191 458.18C203.482 456.869 204.793 456.287 205.958 456.723Z" fill="#FFF7DC"/>
<path d="M208.289 464.151C208.289 464.151 219.359 479.734 223.291 481.919C227.224 484.103 248.636 471.433 248.636 471.433" stroke="#2A1E17" stroke-miterlimit="10" stroke-linecap="round" stroke-linejoin="round"/>
<path d="M233.779 479.734L245.431 491.822" stroke="#2A1E17" stroke-miterlimit="10" stroke-linecap="round" stroke-linejoin="round"/>
<path d="M217.611 477.404L203.919 481.191" stroke="#2A1E17" stroke-miterlimit="10" stroke-linecap="round" stroke-linejoin="round"/>
<path d="M563.108 161.659H550.145V174.621H563.108V161.659Z" fill="#FFE1C0"/>
<path d="M551.893 337.445L555.825 344.29L559.758 350.99H551.893H544.173L548.106 344.29L551.893 337.445Z" fill="#A0C6F4"/>
<path d="M238.731 40.3419L239.751 9.90343C239.605 6.99065 240.77 6.11682 242.518 5.82554C250.821 3.93224 276.019 -1.60204 303.257 6.4081C306.753 7.42757 306.607 9.32087 306.607 11.0685L305.587 40.0507C305.587 42.2352 303.257 43.6916 300.781 43.4004C292.77 42.2352 281.991 41.7983 270.921 41.944C259.56 42.0896 249.364 42.8178 242.227 44.2742C239.605 44.7111 238.585 42.6722 238.731 40.3419Z" stroke="#2A1E17" stroke-miterlimit="10" stroke-linecap="round" stroke-linejoin="round"/>
<path d="M247.907 35.8272L263.784 17.1854L281.408 34.5164C275.437 32.6231 247.907 35.8272 247.907 35.8272Z" stroke="#2A1E17" stroke-miterlimit="10" stroke-linecap="round" stroke-linejoin="round"/>
<path d="M273.543 25.7781L286.506 15.5833L297.285 23.3022L297.722 35.3902L281.408 34.662" stroke="#2A1E17" stroke-miterlimit="10" stroke-linecap="round" stroke-linejoin="round"/>
<path d="M254.978 15.8769C255.124 14.4364 253.815 13.1244 252.054 12.9464C250.293 12.7684 248.748 13.7918 248.602 15.2322C248.456 16.6726 249.766 17.9846 251.526 18.1627C253.287 18.3407 254.832 17.3173 254.978 15.8769Z" stroke="#2A1E17" stroke-miterlimit="10" stroke-linecap="round" stroke-linejoin="round"/>
<path d="M546.649 436.043L557.282 455.704C558.447 457.452 558.01 458.471 556.991 459.345C552.475 463.568 538.492 476.53 518.1 481.482C515.478 482.065 514.896 480.899 514.313 479.88L504.117 461.093C503.389 459.782 504.263 457.888 505.865 457.16C511.4 454.976 518.392 451.189 525.383 446.966C532.52 442.596 538.784 438.373 542.716 434.878C544.318 433.567 545.775 434.441 546.649 436.043Z" stroke="#2A1E17" stroke-miterlimit="10" stroke-linecap="round" stroke-linejoin="round"/>
<path d="M542.425 442.305L539.22 460.073L521.596 455.558C526.111 454.539 542.425 442.305 542.425 442.305Z" stroke="#2A1E17" stroke-miterlimit="10" stroke-linecap="round" stroke-linejoin="round"/>
<path d="M529.753 458.18L525.529 469.54L515.77 468.52L510.963 461.093L521.596 455.558" stroke="#2A1E17" stroke-miterlimit="10" stroke-linecap="round" stroke-linejoin="round"/>
<path d="M548.31 458.321C549.481 457.786 550.077 456.581 549.643 455.63C549.208 454.679 547.907 454.342 546.736 454.877C545.565 455.412 544.969 456.616 545.403 457.567C545.838 458.518 547.14 458.856 548.31 458.321Z" stroke="#2A1E17" stroke-miterlimit="10" stroke-linecap="round" stroke-linejoin="round"/>
<path d="M494.65 99.3257L538.055 132.531C539.075 133.26 540.386 133.114 541.114 132.094L547.669 123.21C548.397 122.337 548.251 121.026 547.232 120.298L504.409 86.0726C503.389 85.3444 502.078 85.49 501.35 86.5095L494.213 96.4129C493.484 97.2867 493.63 98.5975 494.65 99.3257Z" fill="white" stroke="#2A1E17" stroke-miterlimit="10" stroke-linecap="round" stroke-linejoin="round"/>
<path d="M497.854 97.8693L508.341 105.151L514.605 97.8693L503.972 88.9853L497.854 97.8693Z" fill="#FF6D66"/>
<path d="M512.274 108.064L522.907 116.511L528.442 109.52L517.955 100.928L512.274 108.064Z" fill="#FAD8B0"/>
<path d="M526.403 119.715L536.89 126.997L541.988 120.589L531.938 112.288L526.403 119.715Z" fill="#A0C6F4"/>
<path d="M581.17 52.8669L591.074 136.027C591.22 137.92 592.968 139.085 594.716 138.939L611.466 136.609C613.214 136.318 614.525 134.862 614.234 132.968L606.223 49.5172C606.077 47.6239 604.329 46.3131 602.435 46.6044L583.937 49.3716C582.189 49.5172 581.024 51.1192 581.17 52.8669Z" fill="white" stroke="#2A1E17" stroke-miterlimit="10" stroke-linecap="round" stroke-linejoin="round"/>
<path d="M586.268 54.7602L589.326 74.2758L604.183 73.1107L602.581 52.2843L586.268 54.7602Z" fill="#FF6D66"/>
<path d="M590.492 81.7034L592.531 102.238L606.223 100.928L604.329 80.1014L590.492 81.7034Z" fill="#91BA83"/>
<path d="M592.822 109.52L595.881 128.89L608.407 127.58L606.805 107.773L592.822 109.52Z" fill="#FAD8B0"/>
<path d="M559.612 70.6348L586.996 151.173C587.433 152.484 589.035 153.212 590.346 152.775L607.533 146.658C608.844 146.221 609.573 144.765 609.136 143.454L583.354 62.1878C582.917 60.7314 581.315 60.0032 580.004 60.5857L561.215 67.5764C559.904 67.7221 559.175 69.1784 559.612 70.6348Z" fill="white" stroke="#2A1E17" stroke-miterlimit="10" stroke-linecap="round" stroke-linejoin="round"/>
<path d="M565.147 72.0912L572.285 90.4417L586.559 86.2182L580.587 66.12L565.147 72.0912Z" fill="#A0C6F4"/>
<path d="M574.906 97.4324L581.17 117.094L594.279 113.016L588.161 93.0632L574.906 97.4324Z" fill="#F9865F"/>
<path d="M582.917 124.084L590.055 142.58L601.853 138.648L596.318 119.424L582.917 124.084Z" fill="#FAD8B0"/>
<path d="M353.217 206.953H214.989C210.619 206.953 206.978 203.312 206.978 198.943V180.301C206.978 175.932 210.619 172.291 214.989 172.291H353.217C357.587 172.291 361.228 175.932 361.228 180.301V198.943C361.228 203.312 357.587 206.953 353.217 206.953Z" fill="#7595EC"/>
<path d="M301.363 187.728H225.913C224.457 187.728 223.291 186.563 223.291 185.107C223.291 183.651 224.457 182.485 225.913 182.485H301.363C302.82 182.485 303.985 183.651 303.985 185.107C303.985 186.563 302.82 187.728 301.363 187.728Z" fill="white"/>
<path d="M224.165 194.574H352.343" stroke="#2A1E17" stroke-miterlimit="10" stroke-linecap="round" stroke-linejoin="round"/>
<path d="M160.805 109.375L158.62 107.045L151.337 113.598L153.522 115.929C154.396 116.948 155.998 116.948 157.018 116.074L160.659 112.87C161.533 111.996 161.679 110.394 160.805 109.375Z" fill="#91BA83"/>
<path d="M148.133 93.9371L158.474 105.151C159.057 105.734 158.911 106.608 158.329 107.19L151.191 113.744C150.609 114.326 149.735 114.181 149.152 113.598L138.811 102.384C138.228 101.802 138.374 100.928 138.956 100.345L146.094 93.7914C146.676 93.3545 147.55 93.3545 148.133 93.9371Z" stroke="#2A1E17" stroke-miterlimit="10" stroke-linecap="round" stroke-linejoin="round"/>
<path d="M128.178 153.503H115.214V165.3H128.178V153.503Z" fill="#FF6D66"/>
<path d="M115.214 145.93V153.503H107.495" stroke="#2A1E17" stroke-miterlimit="10" stroke-linecap="round" stroke-linejoin="round"/>
<path d="M553.932 20.2438H540.968V32.0405H553.932V20.2438Z" fill="#FAD8B0"/>
<path d="M540.968 12.6706V20.2438H533.249" stroke="#2A1E17" stroke-miterlimit="10" stroke-linecap="round" stroke-linejoin="round"/>
<path d="M191.247 93.2089C57.243 37.7205 -45.8818 144.619 206.687 308.317C226.642 321.279 257.084 325.794 257.084 325.794" stroke="#2A1E17" stroke-miterlimit="10" stroke-linecap="round" stroke-linejoin="round"/>
<path d="M68.0216 100.782C70.1131 100.782 71.8087 99.0868 71.8087 96.9955C71.8087 94.9042 70.1131 93.2089 68.0216 93.2089C65.9301 93.2089 64.2345 94.9042 64.2345 96.9955C64.2345 99.0868 65.9301 100.782 68.0216 100.782Z" fill="#2A1E17"/>
<path d="M43.697 76.0235L47.921 71.9456L57.5343 77.4799L62.341 92.335L47.6297 86.2182L43.697 76.0235Z" stroke="#2A1E17" stroke-miterlimit="10" stroke-linecap="round" stroke-linejoin="round"/>
<path d="M47.921 71.9456L43.697 76.0235L41.3665 73.1107L45.4448 69.3241L47.921 71.9456Z" stroke="#2A1E17" stroke-miterlimit="10" stroke-linecap="round" stroke-linejoin="round"/>
<path d="M62.341 92.335L52.7277 81.849" stroke="#2A1E17" stroke-miterlimit="10" stroke-linecap="round" stroke-linejoin="round"/>
<path d="M85.646 359.728L95.9877 413.323C96.279 414.488 97.2986 415.216 98.6095 415.071L109.388 412.74C110.553 412.449 111.282 411.43 110.99 410.265L101.668 356.233C101.523 355.068 100.357 354.194 99.0464 354.485L87.1026 357.106C86.083 357.543 85.3547 358.563 85.646 359.728Z" fill="white" stroke="#2A1E17" stroke-miterlimit="10" stroke-linecap="round" stroke-linejoin="round"/>
<path d="M88.9961 360.747L91.9093 373.272L101.523 371.816L99.4834 358.272L88.9961 360.747Z" fill="#FF6D66"/>
<path d="M92.9289 378.078L95.2594 391.332L104.144 389.875L101.96 376.331L92.9289 378.078Z" fill="#FAD8B0"/>
<path d="M95.842 395.992L98.7551 408.517L106.766 407.061L104.873 394.244L95.842 395.992Z" fill="#A0C6F4"/>
<path d="M383.659 494.153L427.648 482.356L429.396 487.162L384.825 498.667L383.659 494.153Z" stroke="#2A1E17" stroke-miterlimit="10" stroke-linecap="round" stroke-linejoin="round"/>
<path d="M377.542 488.036L378.853 491.968" stroke="#2A1E17" stroke-miterlimit="10" stroke-linecap="round" stroke-linejoin="round"/>
<path d="M376.376 490.657L380.018 489.346" stroke="#2A1E17" stroke-miterlimit="10" stroke-linecap="round" stroke-linejoin="round"/>
<path d="M375.503 503.328L377.833 510.755" stroke="#2A1E17" stroke-miterlimit="10" stroke-linecap="round" stroke-linejoin="round"/>
<path d="M373.463 507.988L380.018 505.949" stroke="#2A1E17" stroke-miterlimit="10" stroke-linecap="round" stroke-linejoin="round"/>
<path d="M365.452 490.803L368.511 500.852" stroke="#2A1E17" stroke-miterlimit="10" stroke-linecap="round" stroke-linejoin="round"/>
<path d="M362.248 497.065L371.57 494.153" stroke="#2A1E17" stroke-miterlimit="10" stroke-linecap="round" stroke-linejoin="round"/>
<path d="M62.9236 16.3116L35.1032 3.64097L36.1228 0.43692L64.2345 13.3988L62.9236 16.3116Z" stroke="#2A1E17" stroke-width="0.6707" stroke-miterlimit="10" stroke-linecap="round" stroke-linejoin="round"/>
<path d="M63.5062 21.9915L64.5258 19.37" stroke="#2A1E17" stroke-width="0.6707" stroke-miterlimit="10" stroke-linecap="round" stroke-linejoin="round"/>
<path d="M65.2541 21.2633L62.778 20.2438" stroke="#2A1E17" stroke-width="0.6707" stroke-miterlimit="10" stroke-linecap="round" stroke-linejoin="round"/>
<path d="M71.0804 15.0008L72.9739 10.0491" stroke="#2A1E17" stroke-width="0.6707" stroke-miterlimit="10" stroke-linecap="round" stroke-linejoin="round"/>
<path d="M74.1392 13.3988L69.7695 11.6511" stroke="#2A1E17" stroke-width="0.6707" stroke-miterlimit="10" stroke-linecap="round" stroke-linejoin="round"/>
<path d="M70.9347 25.7781L73.5566 19.2243" stroke="#2A1E17" stroke-width="0.6707" stroke-miterlimit="10" stroke-linecap="round" stroke-linejoin="round"/>
<path d="M75.1588 23.8848L69.1869 21.4089" stroke="#2A1E17" stroke-width="0.6707" stroke-miterlimit="10" stroke-linecap="round" stroke-linejoin="round"/>
<path d="M166.922 251.373C147.259 237.246 128.032 215.254 136.48 192.68C136.48 192.68 150.026 183.651 171.438 194.865C192.849 206.079 192.849 206.079 192.849 206.079L166.922 251.373Z" fill="#FAD8B0"/>
<path d="M158.037 345.455C149.152 341.232 111.427 321.716 104.727 288.074C98.9008 259.091 121.041 220.06 132.256 202.729C131.528 225.595 154.542 244.965 165.611 252.975C176.827 261.13 185.129 265.063 196.491 269.286L158.037 345.455Z" fill="white"/>
<path d="M130.508 209.72C132.984 225.012 144.491 240.741 164.301 255.014C174.934 262.732 182.945 266.665 193.432 270.743L157.018 342.688C145.948 337.154 113.029 318.367 106.912 287.782C101.814 262.296 119.147 228.507 130.508 209.72ZM136.48 192.68C136.48 192.68 94.8224 249.042 102.688 288.511C110.553 327.979 159.057 348.222 159.057 348.222L199.695 268.121C187.023 263.461 178.721 259.674 166.922 251.227C147.259 237.246 128.032 215.254 136.48 192.68Z" fill="#FAD8B0"/>
<path d="M125.556 225.449C125.556 225.449 128.032 248.169 150.609 260.257" stroke="#2A1E17" stroke-miterlimit="10" stroke-linecap="round" stroke-linejoin="round"/>
<path d="M162.698 268.412L185.421 280.5" stroke="#2A1E17" stroke-miterlimit="10" stroke-linecap="round" stroke-linejoin="round"/>
<path d="M128.76 257.781C128.76 257.781 136.043 273.947 159.494 284.433" stroke="#2A1E17" stroke-miterlimit="10" stroke-linecap="round" stroke-linejoin="round"/>
<path d="M110.116 260.257C110.116 260.257 110.99 277.296 122.206 282.976" stroke="#2A1E17" stroke-miterlimit="10" stroke-linecap="round" stroke-linejoin="round"/>
<path d="M136.043 201.273C136.043 201.273 134.004 223.119 166.922 251.373" stroke="#2A1E17" stroke-miterlimit="10" stroke-linecap="round" stroke-linejoin="round"/>
<path d="M148.133 205.205C148.133 205.205 158.62 204.331 174.06 215.691" stroke="#2A1E17" stroke-miterlimit="10" stroke-linecap="round" stroke-linejoin="round"/>
<path d="M98.7551 274.966C98.0269 285.743 99.4834 325.066 156.289 349.97" stroke="#2A1E17" stroke-miterlimit="10" stroke-linecap="round" stroke-linejoin="round"/>
<path d="M461.44 253.12L437.407 301.472C437.407 301.472 453.72 307.444 440.902 326.231C440.902 326.231 471.053 338.756 490.863 306.278C510.672 273.801 461.44 253.12 461.44 253.12Z" fill="#91BA83"/>
<path d="M406.236 400.652C394.001 400.652 381.183 395.701 367.928 385.797L412.936 311.085L439.737 327.979H439.883C440.174 328.124 446.146 330.455 454.448 330.455C461.294 330.455 469.742 328.853 478.045 323.027L445.126 379.389C445.272 379.68 431.143 400.652 406.236 400.652Z" fill="white"/>
<path d="M413.81 314.289L438.572 329.872L438.863 330.018L439.154 330.163C439.446 330.309 445.709 332.93 454.594 332.93C459.692 332.93 465.955 332.057 472.219 329.289L443.524 378.515C442.505 379.826 429.104 398.614 406.236 398.614C395.021 398.614 383.077 394.244 370.842 385.36L413.81 314.289ZM490.863 306.133C479.647 324.483 465.227 328.561 454.74 328.561C446.583 328.561 440.902 326.231 440.902 326.231L412.354 308.317L365.161 386.525C381.038 398.759 394.729 402.983 406.382 402.983C432.746 402.983 447.311 380.846 447.311 380.846L490.863 306.133Z" fill="#96BD89"/>
<path d="M437.407 301.327C437.407 301.327 455.322 307.735 440.902 326.085" stroke="#2A1E17" stroke-miterlimit="10" stroke-linecap="round" stroke-linejoin="round"/>
<path d="M411.771 306.424C411.771 306.424 436.241 328.852 449.787 328.707C463.333 328.561 479.21 325.357 488.532 309.191" stroke="#2A1E17" stroke-miterlimit="10" stroke-linecap="round" stroke-linejoin="round"/>
<path d="M414.83 335.552C414.83 335.552 431.58 350.407 450.37 345.747" stroke="#2A1E17" stroke-miterlimit="10" stroke-linecap="round" stroke-linejoin="round"/>
<path d="M432.454 357.835C432.454 357.835 441.339 364.388 453.574 358.126" stroke="#2A1E17" stroke-miterlimit="10" stroke-linecap="round" stroke-linejoin="round"/>
<path d="M391.962 367.01C391.962 367.01 412.354 387.254 444.252 373.855" stroke="#2A1E17" stroke-miterlimit="10" stroke-linecap="round" stroke-linejoin="round"/>
<path d="M403.032 347.203C403.032 347.203 411.334 353.174 416.578 355.068" stroke="#2A1E17" stroke-miterlimit="10" stroke-linecap="round" stroke-linejoin="round"/>
<path d="M465.518 267.102C465.518 267.102 484.017 273.218 486.347 297.686" stroke="#2A1E17" stroke-miterlimit="10" stroke-linecap="round" stroke-linejoin="round"/>
<path d="M474.84 297.395C474.84 297.395 483.434 310.648 468.868 323.901" stroke="#2A1E17" stroke-miterlimit="10" stroke-linecap="round" stroke-linejoin="round"/>
<path d="M366.909 390.166C366.909 390.166 413.519 430.071 447.311 383.467" stroke="#2A1E17" stroke-miterlimit="10" stroke-linecap="round" stroke-linejoin="round"/>
<path d="M30.2966 237.974H41.0751" stroke="#FF6D66" stroke-miterlimit="10" stroke-linecap="round" stroke-linejoin="round"/>
<path d="M635.791 107.336H646.715" stroke="#FF6D66" stroke-miterlimit="10" stroke-linecap="round" stroke-linejoin="round"/>
<path d="M344.332 32.7687H355.111" stroke="#FAD8B0" stroke-miterlimit="10"/>
<path d="M656.62 163.698L667.253 165.591" stroke="#FAD8B0" stroke-miterlimit="10"/>
<path d="M229.555 434.878H240.479" stroke="#A0C6F4" stroke-miterlimit="10" stroke-linecap="round" stroke-linejoin="round"/>
<path d="M680.07 303.074C682.082 303.074 683.712 301.444 683.712 299.433C683.712 297.423 682.082 295.792 680.07 295.792C678.059 295.792 676.429 297.423 676.429 299.433C676.429 301.444 678.059 303.074 680.07 303.074Z" fill="#91BA83"/>
<path d="M3.64141 130.201C5.65251 130.201 7.28283 128.571 7.28283 126.56C7.28283 124.549 5.65251 122.919 3.64141 122.919C1.63032 122.919 0 124.549 0 126.56C0 128.571 1.63032 130.201 3.64141 130.201Z" fill="#91BA83"/>
<path d="M721.874 535.077C723.965 535.077 725.661 533.382 725.661 531.29C725.661 529.199 723.965 527.504 721.874 527.504C719.782 527.504 718.087 529.199 718.087 531.29C718.087 533.382 719.782 535.077 721.874 535.077Z" fill="#2A1E17"/>
<path d="M940.359 400.944C940.359 400.944 970.364 311.667 836.214 364.388C696.821 419.149 641.18 534.058 663.902 543.087C686.771 552.117 720.708 531.727 720.708 531.727" stroke="#2A1E17" stroke-miterlimit="10" stroke-linecap="round" stroke-linejoin="round"/>
</svg>
